<?xml version="1.0" encoding="utf-8"?>
<!-- Generator: Adobe Illustrator 22.0.1, SVG Export Plug-In . SVG Version: 6.00 Build 0)  -->
<svg version="1.1" id="Layer_1" xmlns="http://www.w3.org/2000/svg" xmlns:xlink="http://www.w3.org/1999/xlink" x="0px" y="0px"
	 viewBox="0 0 242 67.6" style="enable-background:new 0 0 242 67.6;" xml:space="preserve">
<style type="text/css">
	.st0{fill:#1E9ECB;}
	.st1{fill:#ACE9FE;}
	.st2{fill:#1D9AC5;}
	.st3{fill:#145991;}
	.st4{fill:#AAE8FD;}
	.st5{fill:#155D94;}
	.st6{fill:#1C95BF;}
	.st7{fill:#156198;}
	.st8{fill:#68C7FE;}
	.st9{fill:#16659A;}
	.st10{fill:#16689D;}
	.st11{fill:#13548C;}
	.st12{fill:#176EA2;}
	.st13{fill:#A6E6FC;}
	.st14{fill:#1B91BA;}
	.st15{fill:#A2E3FA;}
	.st16{fill:#1874A8;}
	.st17{fill:#1B8EB6;}
	.st18{fill:#9CE0F8;}
	.st19{fill:#13518A;}
	.st20{fill:#1A8BB2;}
	.st21{fill:#54B5F0;}
	.st22{fill:#4EB0EB;}
	.st23{fill:#197BAD;}
	.st24{fill:#5EBFF7;}
	.st25{fill:#96DDF6;}
	.st26{fill:#1A88AE;}
	.st27{fill:#379ADA;}
	.st28{fill:#59B9F3;}
	.st29{fill:#63C3FB;}
	.st30{fill:#49ACE8;}
	.st31{fill:#3397D7;}
	.st32{fill:#1985AA;}
	.st33{fill:#2F93D4;}
	.st34{fill:#46A8E5;}
	.st35{fill:#90DAF4;}
	.st36{fill:#3B9FDD;}
	.st37{fill:#1982A6;}
	.st38{fill:#89D7F2;}
	.st39{fill:#2B90D2;}
	.st40{fill:#42A5E2;}
	.st41{fill:#258ACD;}
	.st42{fill:#1A80B2;}
	.st43{fill:#3FA2E0;}
	.st44{fill:#288CCF;}
	.st45{fill:#187EA1;}
	.st46{fill:#7CD0ED;}
	.st47{fill:#76CCEA;}
	.st48{fill:#197C9D;}
	.st49{fill:#1B86B7;}
	.st50{fill:#82D3EF;}
	.st51{fill:#84D4F0;}
	.st52{fill:#1C8CBC;}
	.st53{fill:#2095C3;}
	.st54{fill:#FEFEFE;}
	.st55{fill:#2186CA;}
	.st56{fill:#1C82C7;}
	.st57{fill:#076FB7;}
	.st58{fill:#197FC4;}
	.st59{fill:#1178BE;}
	.st60{fill:#157BC1;}
	.st61{fill:#0C73BA;}
	.st62{fill:#2BA3CF;}
	.st63{fill:#45B3D9;}
	.st64{fill:#37ACD4;}
	.st65{fill:#51B9DE;}
	.st66{fill:#6FC9E8;}
	.st67{fill:#5ABEE1;}
	.st68{fill:#5FC1E3;}
	.st69{fill:#67C5E5;}
	.st70{fill:none;stroke:#000000;stroke-miterlimit:10;}
</style>
<g>
	<g>
		<path class="st0" d="M16.5,10.2c5.3-4.3,11.3-6.6,18.2-6.6c-0.2,0.7,0,1.4,0.3,2.1c2.4,4.3,4.8,8.5,7.1,12.7
			c0.6,1.1,1.7,2.2,1.1,3.7c-1.1,0.2-1.6-0.7-2.3-1.2c-1.8-1.4-3.6-3-5.7-4c-1.9-1.6-4.2-2.3-6.4-3.3c-0.8-0.4-1.7-0.6-2.5-1
			c-1-0.5-2.1-0.4-3.1-0.9c-0.4-0.2-0.8-0.3-1.3-0.4c-0.5-0.2-1-0.2-1.6-0.3c-0.6-0.2-1.2-0.2-1.8-0.3c-0.6-0.2-1.2-0.2-1.8-0.3
			C16.7,10.4,16.6,10.3,16.5,10.2z"/>
		<path class="st1" d="M58.3,14.6c3.3,3.5,5.2,7.8,6.2,12.4c1,4.3,1,8.7,0,13c0,0.1-0.2,0.3-0.3,0.4c-1.2-0.2-1.8-1.2-2.6-1.9
			c-2.4-2.1-5-4.1-7.3-6.4c-0.4-0.4-0.9-0.8-1.1-1.5c-0.1-0.5,0.1-0.9,0.2-1.3c0.2-0.8,0.8-1.4,1-2.2c0.2-0.5,0.5-1,0.6-1.6
			c0.1-0.4,0.2-0.8,0.3-1.2c0.1-0.6,0.5-1.1,0.6-1.6c0.1-0.8,0.5-1.4,0.7-2.1c0.2-0.4,0.2-0.9,0.3-1.3c0.1-0.6,0.3-1.2,0.3-1.9
			C57.8,16.4,57.3,15.2,58.3,14.6z"/>
		<path class="st2" d="M43.2,22.2c0.2-1.4-0.7-2.5-1.3-3.6c-2.5-4.6-5.1-9.1-7.7-13.6c-0.5-0.9,0-1.1,0.6-1.4c1.5,0,3-0.3,4.5,0.2
			c-0.1,0.1-0.2,0.3-0.4,0.3c-1.4,0.1-1.1,0.8-0.6,1.6c1.7,2.9,3.4,5.9,5,8.9c2.8,5,5.5,10,8.3,14.9c0.4,0.7,0.9,1.3,1.5,1.7
			c0.1,1-0.4,1.6-1.3,1.9c-0.8-0.5-1.1-1.3-1.5-2c-1.8-2.7-3.8-5.3-6.1-7.6C43.7,23.3,43.1,22.9,43.2,22.2z"/>
		<path class="st3" d="M27.8,62.5c-1.4-0.1-2.6-0.6-3.8-1.3c0.2-0.7-0.2-1.2-0.5-1.8c-2.6-4.7-5.2-9.4-7.9-14.1
			c-0.4-0.6-0.8-1.1-1.5-1.2c-0.2-0.3-0.2-0.6-0.1-0.9c0.2-0.7,0.4-1.3,0.6-2c0.2-0.5,0.3-1,0.8-1.4c1-0.6,1.4,0.2,1.8,0.9
			c1.8,2.9,3.4,5.9,5.1,8.9c2,3.6,4.1,7.2,6,10.9c0.2,0.3,0.4,0.6,0.5,1C29,62.5,28.7,62.9,27.8,62.5z"/>
		<path class="st4" d="M51.8,33.1c0.7-0.4,1-1.1,1.2-1.8c-0.2-0.6,0-0.8,0.6-0.7c1.5,2.2,3.7,3.6,5.6,5.4c1.7,1.5,3.4,3,5.2,4.5
			c-0.2,1.7-0.7,3.3-1.6,4.7c-1.6-0.7-2.7-2-3.9-3.1c-2.4-2-4.7-4-7.1-6c-0.4-0.3-0.7-0.6-0.8-1.1C50.9,34.2,51.2,33.6,51.8,33.1z"
			/>
		<path class="st5" d="M27.8,62.5c1.1,0,0.9-0.5,0.5-1.2c-1.1-2-2.2-4-3.3-6c-2.7-4.8-5.4-9.6-8.1-14.3c-0.3-0.5-0.4-1.3-1.3-0.9
			c-0.4-0.4-0.2-0.9,0-1.3c0.3-0.5,0.4-1.2,0.9-1.6c0.1-0.1,0.3-0.2,0.4-0.3c0.9-0.3,1.2,0.4,1.6,1c3,5.1,5.8,10.3,8.7,15.5
			c1.3,2.3,2.6,4.6,3.9,6.8c0.4,0.6,0.8,1.3,0.9,2c0.1,0.6,0.1,1.2-0.8,0.9C29.8,63.2,28.8,62.9,27.8,62.5z"/>
		<path class="st6" d="M53.6,30.6c-0.4,0.1-0.6,0.4-0.6,0.7c-0.8,0.4-1-0.3-1.3-0.8c-4-7.2-8-14.4-12.1-21.6
			c-0.7-1.2-1.4-2.3-2.1-3.5c-0.8-1.4-0.7-1.5,0.8-1.6c0.3,0,0.5,0,0.8,0c0.7,0,1.3-0.1,1.9,0.3c-0.8,0.6-0.6,1.3-0.2,2.1
			c2.6,4.5,5.1,9.1,7.6,13.6c1.8,3.2,3.6,6.4,5.4,9.6C53.8,29.8,53.7,30.2,53.6,30.6z"/>
		<path class="st7" d="M30.9,63.1c1.2-0.3,0.5-1,0.3-1.4c-1.7-3.1-3.4-6.1-5.1-9.2c-2.7-4.8-5.4-9.6-8.1-14.3
			c-0.3-0.5-0.3-1.3-1.3-0.9c-0.3-0.5,0-0.9,0.1-1.3c0.2-0.4,0.4-0.8,0.9-1c1.1-0.1,1.4,0.8,1.8,1.5c2.8,4.8,5.5,9.7,8.2,14.5
			c2,3.5,3.9,7.1,5.9,10.6c0.3,0.6,0.9,1.1,0.4,1.9C33,63.4,31.9,63.6,30.9,63.1z"/>
		<path class="st8" d="M12.6,53.1c-4.8-5.8-7.5-12.3-7.1-19.9c0.7-0.1,1,0.4,1.3,0.9c1.7,3.1,3.4,6.2,5.1,9.3
			c0.7,1.2,1.9,2.2,1.9,3.7c0,0.3,0,0.7,0,1C13.2,49.8,13.5,51.6,12.6,53.1z"/>
		<path class="st9" d="M34.1,63.4c-1.2-2.8-2.8-5.4-4.2-8c-2.6-4.8-5.4-9.6-8.1-14.3c-1-1.7-1.9-3.4-2.8-5.1
			c-0.3-0.5-0.6-0.9-1.2-0.9c-0.1-0.1-0.2-0.2-0.2-0.4c0.2-0.6,0.3-1.3,1-1.7c0.2,0,0.3,0,0.5,0.1c1.6,2.1,3.4,4.1,4.6,6.4
			c0.1,0.8,0.4,1.6,0.8,2.3c3.7,6.3,7.1,12.8,10.8,19.1c0.4,0.7,1.2,1.4,0.7,2.4C35.3,63.4,34.7,63.4,34.1,63.4z"/>
		<path class="st10" d="M36,63.4c-1.5-3.5-3.6-6.6-5.4-9.9c-2.2-4.1-4.5-8.1-6.8-12.2c-0.3-0.6-0.6-1.2-0.4-1.9
			c0.3-0.1,0.6,0.1,0.8,0.3c1.6,1.7,3.6,3.1,4.8,5.1c0.5,1.9,1.7,3.6,2.7,5.3c2,3.7,4.1,7.3,6.1,10.9c0.4,0.7,1.2,1.5,0,2.3
			C37.2,63.4,36.6,63.4,36,63.4z"/>
		<path class="st11" d="M13.3,48c0-0.3,0-0.6,0-0.9c0.4-0.5,0-1,0.1-1.6c0.2-0.5,0.2-1.1,0.9-1.3c1-0.9,1.3,0.1,1.5,0.6
			c1.5,2.5,2.9,5.1,4.3,7.6c1.4,2.5,2.7,5,4.1,7.6c0.3,0.5,0.8,1-0.2,1.2c-1.6-0.4-3-1.3-4.4-2.2c-0.8-2.6-2.5-4.8-3.8-7.1
			C15.1,50.5,14.5,49.1,13.3,48z"/>
		<path class="st12" d="M37.9,63.4c0.5-0.7,0.1-1.3-0.2-1.9c-2.6-4.7-5.3-9.3-7.9-14c-0.5-0.8-1.1-1.7-1-2.7c0.4-0.1,0.7,0,1,0.2
			c1.5,1.3,3.4,2.2,4.6,3.9c1.9,3.8,4.2,7.4,6.2,11.2c0.4,0.8,1.3,1.6,0.8,2.7C40.2,63.3,39.1,63.4,37.9,63.4z"/>
		<path class="st13" d="M51.1,35.1c3.7,3.1,7.4,6.3,11.1,9.4c0.2,0.2,0.4,0.5,0.6,0.7c-0.3,0.9-0.5,1.8-1.2,2.5
			c-0.6,0.3-1-0.1-1.4-0.4c-3.5-3.4-7.4-6.4-11-9.6C49.4,36.5,49.8,35.4,51.1,35.1z"/>
		<path class="st14" d="M53.9,29.4c-1.6-1-1.9-2.8-2.8-4.3c-3.7-6.4-7.3-12.9-10.9-19.4c-0.6-1-0.6-1.7,0.8-1.6
			c0.5,0,0.9-0.1,1.3,0.3c-0.2,0.7,0.2,1.3,0.5,1.9c3.6,6.5,7.3,12.9,10.9,19.3c0.3,0.5,0.6,1.1,1.1,1.5
			C54.9,28.1,54.1,28.6,53.9,29.4z"/>
		<path class="st15" d="M49.2,37.6c2.1,1,3.5,2.8,5.2,4.1c2.5,1.9,4.5,4.3,7.1,6c-0.3,0.8-0.6,1.6-1.3,2.2c-0.8,0.2-1.1-0.4-1.6-0.8
			c-3.7-3.3-7.5-6.3-11.2-9.6C47.7,38.6,48.1,37.8,49.2,37.6z"/>
		<path class="st16" d="M41.3,62.8c-1-2.8-2.8-5.1-4.1-7.7c-1-2.1-2.5-3.9-3.2-6.2c0.7-0.5,1.1,0.2,1.7,0.4c1,0.6,2.2,1.1,3,2
			c1.5,3.1,3.4,6,5,9.1c0.3,0.6,0.8,1.2,0.1,1.8C43.1,62.6,42.2,62.9,41.3,62.8z"/>
		<path class="st17" d="M54.9,27.2c-0.6,0.4-0.8-0.1-1-0.5c-3.3-6-6.7-12-10.1-17.9c-0.6-1.1-1.2-2.1-1.7-3.2
			c-0.3-0.5-0.6-1,0.3-1.1c0.4,0,0.9,0,1.2,0.3c2.3,4.6,4.9,9,7.4,13.5c1,1.8,2,3.6,3,5.4c0.4,0.7,0.8,1.5,1.5,2
			C55.4,26.2,55.2,26.7,54.9,27.2z"/>
		<path class="st18" d="M47.6,39.5c2,0.8,3.3,2.5,4.9,3.8c2.7,2.1,5.2,4.4,7.8,6.6c-0.2,0.8-0.8,1.3-1.3,1.8c-1.3-0.4-2.1-1.3-3-2.2
			c-3.1-3-6.5-5.6-9.7-8.5C46.4,40.3,46.6,39.5,47.6,39.5z"/>
		<path class="st19" d="M13.3,48c0.4-0.2,0.7-0.2,0.9,0.3c1.8,3.2,3.6,6.4,5.4,9.6c0.2,0.4,0.5,0.8,0,1.2c-2.7-1.5-5-3.5-7-5.9
			C12.7,51.4,12.7,49.7,13.3,48z"/>
		<path class="st20" d="M55.5,25.6c-0.6,0.4-0.8-0.1-1-0.5C50.9,18.7,47.3,12.4,43.7,6c-0.2-0.4-0.5-0.8-0.1-1.3
			c0.7,0,1.3,0.3,1.9,0.6c1,2.7,2.6,5,4,7.4c1.8,3.4,3.7,6.7,5.7,10c0.3,0.5,0.3,1.1,0.7,1.6C55.9,24.8,55.7,25.2,55.5,25.6z"/>
		<path class="st21" d="M15.8,38.9c-0.2,0.4-0.4,0.8-0.3,1.2c-0.2,0.4-0.4,0.9-0.6,1.3c-3-5.1-5.8-10.3-8.5-15.5
			c0-1.1,0.5-2,0.9-2.9c2.5,4,4.6,8.2,6.9,12.3C14.8,36.5,15.8,37.5,15.8,38.9z"/>
		<path class="st22" d="M15.8,38.9c-2.5-4-4.7-8.3-7-12.4c-0.6-1.1-1.6-2-1.6-3.4c0.1-0.6,0.3-1.1,0.6-1.6c1.8,1.6,2.4,3.9,3.6,5.8
			c1.5,2.5,2.8,5,4.2,7.5c0.4,0.7,1.1,1.5,0.7,2.4C16.3,37.9,16.2,38.4,15.8,38.9z"/>
		<path class="st23" d="M43.9,62.2c0.1-1.7-1.2-2.8-1.9-4.2c-1.1-2.2-2.5-4.3-3.5-6.6c0.2-0.2,0.4-0.2,0.6-0.2c1,0.4,2,0.8,2.9,1.3
			c0.2,0.1,0.4,0.3,0.5,0.5c1,1.9,2.2,3.8,3.2,5.7c0.4,0.7,1.1,1.5,0.6,2.4C45.6,61.8,44.8,62.2,43.9,62.2z"/>
		<path class="st24" d="M14.2,44.2c-0.2,0.5-0.4,0.9-0.6,1.4c-2.4-4.3-4.5-8.7-7.1-12.9c-0.6-1-1.4-2-0.9-3.3c0-0.6-0.1-1.1,0.3-1.6
			c1.8,1.3,2.3,3.4,3.4,5.2c1.5,2.5,2.8,5.1,4.2,7.7c0.5,0.9,1.1,1.7,0.7,2.8C14.2,43.6,14.2,43.9,14.2,44.2z"/>
		<path class="st25" d="M46.3,41c1.6,0.6,2.6,1.9,3.8,2.9c3,2.5,5.9,5.2,8.8,7.8c-0.3,0.4-0.6,0.9-0.9,1.3c-1.5-0.7-2.6-2-3.9-3.1
			c-2.6-2.1-5-4.3-7.6-6.5c-0.5-0.4-1-0.8-1.2-1.4C45.3,41.4,45.6,41,46.3,41z"/>
		<path class="st26" d="M55.9,24.4c-1.4-1.3-2-3-2.9-4.6c-2.5-4.2-4.8-8.5-7.2-12.8c-0.2-0.4-1-1-0.2-1.6C45.9,6,46.7,5.5,47,6
			c3.1,5.6,6.3,11.2,9.4,16.8C56.6,23.4,55.8,23.7,55.9,24.4z"/>
		<path class="st27" d="M11.4,15.5c0.3-0.4,0.6-0.8,1-1.2c1.8,2.6,3.2,5.5,4.8,8.3c1.3,2.3,2.4,4.8,4.2,6.8c0.1,0.8-0.3,1.3-1,1.5
			c-1,0.1-1.4-0.6-1.8-1.3c-2.3-4.1-4.6-8.2-6.8-12.3C11.3,16.7,11,16.2,11.4,15.5z"/>
		<path class="st28" d="M14.2,43.3c-0.4-2.4-2-4.2-3-6.3c-1.1-2.3-2.6-4.5-3.6-6.8c-0.4-0.9-1.5-1.4-1.6-2.5c0-0.6,0-1.2,0.4-1.8
			c1.2,0.9,1.6,2.4,2.4,3.6c2,3.4,3.8,6.9,5.7,10.4c0.3,0.5,0.5,0.9,0.4,1.5C14.8,42.1,14.6,42.7,14.2,43.3z"/>
		<path class="st29" d="M5.7,29.4c-0.4,1.7,1.1,2.7,1.8,4c1.5,3,3.4,5.9,4.8,9c0.5,1.1,1.6,1.8,1.4,3.2c0,0.5,0,1.1-0.3,1.5
			c-0.5-1.8-1.8-3.3-2.7-4.9c-1.5-2.7-2.9-5.4-4.3-8.1c-0.2-0.4-0.5-0.7-0.9-0.9C5.4,31.9,5.1,30.6,5.7,29.4z"/>
		<path class="st30" d="M16.4,37.3c-1-2.8-2.8-5.1-4.1-7.7c-1.4-2.7-2.9-5.4-4.4-8.1c0.1-0.7,0.5-1.3,0.9-1.9
			c2.6,4.9,5.4,9.8,8.1,14.7c0.3,0.6,0.5,1.2,0.2,1.8c-0.1,0.4-0.3,0.8-0.4,1.2C16.6,37.3,16.5,37.3,16.4,37.3z"/>
		<path class="st31" d="M21.2,29.4c-1.6-0.3-1.7-1.9-2.3-2.9c-2.2-3.8-4.3-7.6-6.4-11.5c-0.1-0.2-0.1-0.5-0.1-0.8
			c0.2-0.4,0.5-0.8,0.9-1c2.1,3.3,3.9,6.8,5.8,10.2c1,1.7,1.9,3.5,2.8,5.2C21.9,29.2,21.7,29.5,21.2,29.4z"/>
		<path class="st32" d="M56.4,22.8c-1-0.3-1.1-1.3-1.5-2.1c-2.6-4.5-5-9-7.5-13.6C47.2,6.8,47,6.4,47,6c0.6,0.6,1.6,0.3,2.2,1
			c1.9,4,4.2,7.9,6.3,11.8c0.4,0.7,0.9,1.3,1.5,1.8C56.8,21.3,56.6,22,56.4,22.8z"/>
		<path class="st33" d="M21.7,28.8c-1.7-2.1-2.6-4.7-4-6.9c-1.5-2.4-2.8-4.8-4.1-7.2c-0.2-0.4-0.4-0.9-0.4-1.4
			c0.2-0.2,0.4-0.4,0.6-0.7c0.6,0.4,1,1,1.3,1.5c2.1,3.7,4.3,7.3,6.2,11.1c0.4,0.8,1,1.3,1.7,1.7C23.3,28,22.5,28.4,21.7,28.8z"/>
		<path class="st34" d="M17.1,36c-0.2-1.9-1.5-3.3-2.3-4.9c-1.7-3.3-3.6-6.5-5.4-9.7c-0.3-0.6-0.5-1.2-0.5-1.9
			c0-0.2,0.1-0.5,0.3-0.6c0.8,0.2,1.1,0.8,1.4,1.4c2.1,3.7,4.3,7.5,6.3,11.2c0.5,1,1.4,1.9,0.9,3.2c0,0.1,0,0.2,0,0.3
			C17.5,35.4,17.3,35.7,17.1,36z"/>
		<path class="st35" d="M45.4,42c3.4,2.9,6.8,5.8,10.1,8.7c0.9,0.7,1.9,1.2,2.5,2.3c-0.2,0.4-0.5,0.8-0.9,1
			c-2.1-1.4-3.9-3.3-5.8-4.9c-2.1-1.8-4.2-3.6-6.3-5.4c-0.2-0.2-0.5-0.4-0.6-0.7C44.4,42.3,44.7,41.9,45.4,42z"/>
		<path class="st36" d="M11.4,15.5c0.2,1.3,1,2.4,1.6,3.5c1.9,3.5,3.9,6.9,5.8,10.4c0.3,0.6,0.7,1.2,1.5,1.3
			c0.3,0.6-0.1,0.9-0.5,1.2c-1.3,0.5-1.6-0.7-2.1-1.4c-1.5-2.8-3.1-5.6-4.7-8.3c-0.7-1.3-1.4-2.5-2.1-3.8c-0.3-0.5-0.6-1-0.5-1.6
			C10.7,16.3,11,15.9,11.4,15.5z"/>
		<path class="st37" d="M57.1,20.6c-0.7,0.4-0.9-0.2-1.2-0.6c-2.4-4-4.6-8.2-6.8-12.3C48.9,7.4,49,7.2,49.2,7
			c0.6,0.1,1.1,0.5,1.6,0.9c2.4,3.7,4.3,7.6,6.5,11.4C57.4,19.8,57.2,20.2,57.1,20.6z"/>
		<path class="st38" d="M44.4,42.9c3.1,2.3,6,4.9,8.9,7.5c1.3,1.1,2.9,2,3.8,3.6c-0.2,0.4-0.5,0.7-0.9,1c-4.1-3.8-8.4-7.4-12.7-11
			C43.4,43.3,43.7,42.9,44.4,42.9z"/>
		<path class="st39" d="M23.1,26.9c-1.2,0.5-1.5-0.5-1.9-1.1c-2.3-4.4-4.8-8.6-7.4-12.9c-0.1-0.1,0-0.2-0.1-0.3
			c0.2-0.4,0.5-0.7,1-0.9c1.2,0.9,1.6,2.3,2.3,3.5c2.1,3.7,4.2,7.5,6.3,11.2C23.5,26.6,23.4,26.8,23.1,26.9z"/>
		<path class="st40" d="M17.7,34.8c-0.5-2-1.5-3.6-2.5-5.3c-2-3.5-3.8-7.1-6-10.5c0.1-0.5,0.3-0.9,0.7-1.2c0.6,0.3,0.9,0.8,1.2,1.4
			c2.4,4.4,4.9,8.8,7.4,13.2c0.2,0.3,0.3,0.6,0.2,0.9C18.2,33.6,18.2,34.4,17.7,34.8z"/>
		<path class="st41" d="M16.5,10.2c0.1,0,0.2,0,0.3,0c2.5,4,4.6,8.3,6.9,12.4c0.5,0.8,1.1,1.5,1.4,2.5c0,0.5-0.3,0.7-0.7,0.8
			c-0.9,0.1-1.3-0.6-1.6-1.2c-2.3-4.1-4.6-8.3-6.9-12.4c-0.2-0.4-0.5-0.7-0.3-1.2C15.7,10.6,16.1,10.4,16.5,10.2z"/>
		<path class="st42" d="M46.4,61.2c-0.6-2.1-1.9-3.9-3-5.8c-0.4-0.8-0.9-1.5-1.1-2.4c0.8-0.5,1.5,0.3,2.2,0.3
			c0.4,0.2,0.9,0.3,1.2,0.7c1,1.6,1.7,3.4,2.7,5c0.2,0.3,0.4,0.7,0.2,1.2C47.9,60.7,47.3,61.4,46.4,61.2z"/>
		<path class="st43" d="M18.6,33.2c-3.1-5-5.8-10.3-8.8-15.4c0.1-0.4,0.2-0.8,0.6-1c2.6,4.6,5.1,9.2,7.7,13.8
			c0.3,0.5,0.4,1.6,1.5,1.1c0.3,0.8-0.2,1.2-0.7,1.6C18.8,33.2,18.7,33.2,18.6,33.2z"/>
		<path class="st44" d="M15.4,11.1c2.4,4.3,4.8,8.5,7.3,12.8c0.4,0.7,0.6,1.6,1.6,1.8c0.1,0.7-0.5,0.8-1,0.9c-1.3-1-1.7-2.6-2.5-3.9
			c-2.1-3.6-4-7.3-6-11C15,11.5,15.2,11.3,15.4,11.1z"/>
		<path class="st45" d="M57.4,19.3c-1.3-0.5-1.4-1.9-2-2.9c-1.4-2.4-2.7-4.8-4.1-7.2c-0.2-0.4-0.5-0.8-0.4-1.3c0.8,0.9,2.1,1,2.8,2
			c0.9,2.1,2.2,4,3.3,6c0.3,0.5,0.7,1,0.8,1.5C57.8,18.1,57.6,18.7,57.4,19.3z"/>
		<path class="st46" d="M55.5,55.6c-0.2,0.2-0.4,0.5-0.6,0.7c-1.5-0.4-2.2-1.7-3.3-2.6c-3.2-2.6-6.3-5.4-9.4-8
			c-0.2-0.1-0.3-0.3-0.3-0.5c0-0.6,0.3-0.9,0.8-1c0.2,0,0.3,0,0.4,0.1c3.8,3.4,7.9,6.7,11.7,10.2C55.1,54.7,55.7,54.9,55.5,55.6z"/>
		<path class="st47" d="M41.9,45.1c4.5,3.5,8.8,7.3,13,11.1c-0.1,0.1-0.2,0.2-0.3,0.3c-0.6,0-1.2,0-1.7-0.4
			C49.1,52.4,45,49.2,41,45.8C41,45.1,41.4,45.1,41.9,45.1z"/>
		<path class="st48" d="M57.7,17.4c-1.8-2.3-3.5-4.6-4.1-7.5c1.9,1.3,3.7,2.6,4.8,4.7C58.1,15.5,57.9,16.5,57.7,17.4z"/>
		<path class="st49" d="M48.6,60.3c-1-2-2.1-4-3.1-6c0.5-0.4,1-0.2,1.6,0c0.5,0.2,1,0.4,1.5,0.7c0.1,0.1,0.2,0.2,0.3,0.3
			c0.5,0.9,1,1.8,1.5,2.7c0.2,0.4,0.6,0.8,0.2,1.3C49.9,59.7,49.4,60.3,48.6,60.3z"/>
		<path class="st50" d="M55.5,55.6c-3.3-2.9-6.6-5.7-9.9-8.6c-0.9-0.8-2.1-1.5-2.7-2.7c0.8-0.4,1.3,0.2,1.8,0.6c2.7,2.3,5.4,4.6,8,7
			c0.8,0.7,1.8,1.3,2.5,2.2c0.3,0.4,0.9,0.7,0.7,1.3C55.7,55.4,55.6,55.5,55.5,55.6z"/>
		<path class="st51" d="M55.8,55.3c-2-2.5-4.8-4.3-7.1-6.5c-1.3-1.2-2.7-2.3-4-3.5c-0.5-0.5-1.1-1-1.9-1c0,0,0,0,0,0
			c-0.1-0.5,0.2-0.5,0.5-0.4c1.5,0.3,2.4,1.6,3.5,2.6c2.8,2.4,5.6,4.8,8.4,7.3c0.4,0.3,0.8,0.7,0.8,1.3
			C56.1,55.1,55.9,55.2,55.8,55.3z"/>
		<path class="st52" d="M50.5,59.3c-0.4-1.4-1.7-2.5-1.9-4.1c0.3-0.3,0.7-0.3,1.1-0.3c0.5,0.1,1,0.4,1.5,0.5c0.3,0,0.6,0.1,0.9,0.3
			c0.4,0.8,1.1,1.5,0.3,2.4C51.8,58.7,51.2,59.1,50.5,59.3z"/>
		<path class="st53" d="M52.4,58.2c0.4-0.8-0.5-1.5-0.3-2.3c0.3-0.3,0.6-0.2,0.9,0c0.5,0.4,1.2,0.1,1.6,0.7
			C53.9,57.1,53.2,57.8,52.4,58.2z"/>
		<path class="st54" d="M43.5,43.9c-0.2,0.1-0.4,0.2-0.5,0.4c-0.3,0.3-0.7,0.6-1,0.9c-0.3,0.2-0.6,0.4-0.9,0.7c0,0.1,0,0.1,0,0.2
			c-0.2,0.4-0.5,0.6-0.8,0.9c-0.2,0.1-0.4,0.3-0.7,0.4c-0.3,0.2-0.5,0.4-0.8,0.5c-0.1,0.1-0.3,0.2-0.4,0.4c-0.3,0.2-0.6,0.4-1,0.6
			c-0.3,0.2-0.6,0.4-1,0.6c-0.2,0.1-0.5,0.1-0.7,0.1c-0.6,0-0.9-0.7-1.5-0.6c-1.8-1.4-3.6-2.8-5.3-4.2c-1.8-1.8-3.6-3.6-5.4-5.4
			c-1.5-2.1-3.1-4-4.5-6.2c0.2-0.5,0.5-1.1,0.7-1.6c0.3-0.2,0.5-0.6,0.6-0.9c0.4-0.3,0.7-0.8,0.9-1.3c0.2-0.2,0.3-0.4,0.5-0.6
			c0.4-0.7,1.2-1.1,1.5-1.8c0.2-0.1,0.3-0.2,0.2-0.4c0.3-0.3,0.6-0.6,1-0.9c0.3-0.1,0.5-0.3,0.6-0.7c0-0.7,0.8-0.9,1.1-1.4
			c0.2-0.2,0.4-0.5,0.6-0.7c0.4-0.4,0.9-0.8,1.3-1.2c0.4-0.4,0.8-0.7,1.3-1c0.4-0.3,0.7-0.7,1.1-0.9c0.6-0.4,1.2-0.9,1.8-1.4
			c1.1-0.5,1.9-1.6,3.3-1.6c1.2,0,2,0.9,2.8,1.5c1.7,1.3,3.4,2.6,5.1,4c3.2,3.3,6.4,6.8,8.6,10.9c0.1,0.8-0.6,1.3-0.7,1.9
			c-0.8,0.7-1.2,1.7-1.9,2.5c-0.5,0.6-1,1.3-1.6,1.9c-0.6,0.4-0.9,1-1.3,1.6c-0.3,0.3-0.6,0.6-0.9,1c-0.3,0.3-0.6,0.6-1,0.9
			C44.1,43.2,43.8,43.6,43.5,43.9z"/>
		<path class="st55" d="M26.1,23.7c-0.2,0.6-0.9,0.8-1.3,1.3c-1.6-1.8-2.4-4-3.6-6c-1.4-2.5-2.8-4.9-4.1-7.4
			c-0.2-0.4-0.4-0.8-0.4-1.3c0.6,0.1,1.3-0.3,1.9,0.3C21.1,14.9,23.4,19.4,26.1,23.7z"/>
		<path class="st56" d="M26.1,23.7c-1.6-0.7-1.9-2.4-2.7-3.7c-1.7-2.8-3.2-5.7-4.8-8.6c-0.2-0.3-0.5-0.6,0-1
			c0.6,0.1,1.3-0.2,1.9,0.3c0.8,2.3,2.2,4.3,3.4,6.4c0.8,1.5,1.5,3,2.4,4.4c0.3,0.4,0.4,0.9,0.4,1.5C26.7,23.4,26.4,23.6,26.1,23.7z
			"/>
		<path class="st57" d="M35.3,16.7c-1.1,0.7-2.2,1.3-3.2,2c-0.6,0.4-1,0.2-1.3-0.3c-0.9-1.2-1.6-2.4-2.2-3.8
			c-0.2-0.5-0.4-1.1,0.5-1.3c1.8,0.8,3.7,1.3,5.3,2.5C34.7,16.1,35.3,16.1,35.3,16.7z"/>
		<path class="st58" d="M26.7,23.1c-2.1-3.7-4.2-7.4-6.2-11.1c-0.2-0.3-0.9-0.8,0-1.2c0.5,0.1,1.1-0.2,1.6,0.3
			c1.8,3.7,3.8,7.3,6,10.7C27.8,22.4,27.2,22.6,26.7,23.1z"/>
		<path class="st59" d="M30.4,20c-0.3,0.4-0.6,0.7-1.1,0.9c-0.7,0.4-1.1,0.1-1.4-0.4c-1.6-2.7-3.1-5.4-4.6-8.1
			c-0.1-0.3-0.2-0.6,0.1-0.9c1,0.6,2.3,0.1,3.2,0.9c-0.1,0.7,0.2,1.2,0.5,1.8C28.1,16.1,29.2,18,30.4,20z"/>
		<path class="st60" d="M23.4,11.4c1.4,3.2,3.3,6.1,5,9c0.2,0.4,0.6,0.4,0.9,0.4c-0.4,0.3-0.8,0.6-1.2,1c-1.2-0.1-1.3-1.3-1.8-2
			c-1.6-2.6-3-5.3-4.5-8c-0.2-0.3-0.4-0.7,0.2-0.8C22.5,11.1,23,11,23.4,11.4z"/>
		<path class="st61" d="M30.4,20c-1.8-1.2-2.1-3.4-3.3-5c-0.4-0.5-0.6-1.1-0.9-1.6c-0.3-0.5-0.3-0.9,0.4-1c0.9,0.2,1.8,0.4,2.5,0.9
			c-0.4,0.3-0.4,0.7-0.2,1c0.7,1.4,1.5,2.7,2.3,4c0.2,0.4,0.6,0.4,1,0.3C31.6,19.2,31,19.7,30.4,20z"/>
		<path class="st62" d="M35.6,49.5c0.2-0.1,0.4-0.2,0.6-0.3c1.3,0,2.5,0.9,2.9,2.3c-0.2,0-0.4,0-0.6,0
			C37.5,50.8,36.6,50.2,35.6,49.5z"/>
		<path class="st63" d="M37.2,48.6c0.3-0.2,0.6-0.4,1-0.6c0.2-0.1,0.4-0.1,0.6,0c1.9,1.5,3.8,3,5.5,4.7c0.2,0.3,0.5,0.6,0.3,1
			c-0.8,0.1-1.4-0.6-2.2-0.7c-0.1-0.1-0.2-0.2-0.3-0.3C40.2,51.6,38.6,50.2,37.2,48.6z"/>
		<path class="st64" d="M37.2,48.6c1.9,1.1,3.3,2.6,4.8,4.1c-1-0.3-2-0.5-2.8-1.3c-0.8-1-1.7-1.8-2.9-2.3
			C36.4,48.9,36.8,48.7,37.2,48.6z"/>
		<path class="st65" d="M44.5,53.7c-1.7-2.3-4.2-3.9-6.3-5.7c0.1-0.1,0.3-0.2,0.4-0.3c0.5-0.4,1-0.2,1.4,0.2
			c2.2,1.8,4.4,3.7,6.5,5.5c0.3,0.3,0.7,0.6,0.5,1.2c-0.5-0.1-1-0.2-1.6-0.3C45.1,54.1,44.8,53.9,44.5,53.7z"/>
		<path class="st66" d="M53,55.9c-0.3,0-0.6,0-0.9,0c-0.3,0-0.6-0.1-0.9-0.1c-1.8-2.1-4.2-3.6-6.2-5.5c-1-1-2.1-1.8-3.2-2.8
			c-0.5-0.4-1.2-0.8-0.7-1.7c0,0,0,0,0,0c1.5,0.1,2.1,1.4,3.1,2.2C47.2,50.6,50.4,52.9,53,55.9z"/>
		<path class="st67" d="M47,54.6c-2.3-2.5-5.1-4.6-7.7-6.8c-0.2-0.1-0.5-0.1-0.8-0.1c0.3-0.2,0.6-0.4,0.9-0.6c1-0.1,1.6,0.8,2.2,1.3
			c2.1,1.7,4.1,3.5,6.2,5.3c0.4,0.4,1.4,0.7,0.4,1.6C47.9,55,47.4,54.8,47,54.6z"/>
		<path class="st68" d="M48.3,55.2c0.4-0.6-0.1-0.9-0.5-1.1c-2.8-2.3-5.6-4.7-8.4-7c0.2-0.1,0.4-0.2,0.5-0.4c0.6-0.2,1,0.3,1.4,0.6
			c2.8,2.3,5.4,4.8,8.1,7.1c0.3,0.2,0.5,0.5,0.3,0.9c-0.4,0-0.8,0-1.3,0C48.5,55.2,48.4,55.2,48.3,55.2z"/>
		<path class="st69" d="M49.8,55.3c-2.1-1.9-4.1-3.8-6.2-5.6c-1.2-1-2.4-2-3.6-2.9c0.3-0.3,0.7-0.6,1-0.9c0.8,1.9,2.7,2.7,4.1,4
			c1.7,1.7,3.6,3.1,5.5,4.7c0.3,0.3,1,0.6,0.6,1.3C50.6,55.9,50.2,55.6,49.8,55.3z"/>
	</g>
	<g>
		<path d="M85.5,17.6c0,0-1.6-2-4.6-2c-3.6,0-6.1,3.2-6.1,6.8c0,3.6,2.5,6.8,6.1,6.8c3,0,4.8-2.2,4.8-2.2l1.4,1.4
			c0,0-2.3,2.8-6.2,2.8c-4.8,0-8.3-3.8-8.3-8.7c0-4.8,3.5-8.7,8.3-8.7c3.9,0,6,2.6,6,2.6L85.5,17.6z"/>
		<path d="M93.8,14h1.9l6.6,16.8h-2.1l-1.8-4.5h-7.2l-1.8,4.5h-2.2L93.8,14z M91.8,24.3h5.8l-2.9-7.5L91.8,24.3z"/>
		<path d="M103.8,14h4.4c3.3,0,5.6,2,5.6,5c0,4-3.6,4.7-4.1,4.8l4.7,7h-2.4l-4.5-6.9h-1.6v6.9h-2V14z M111.7,18.9c0-1.8-1.2-3-3.5-3
			h-2.5V22h2.5C110.5,22,111.7,20.8,111.7,18.9z"/>
		<path d="M116.4,14h4.4c3.5,0,5.4,1.8,5.4,4.6c0,2.3-1.7,3.2-1.9,3.3c0.2,0,2.8,0.8,2.8,4.1c0,2.9-2.2,4.8-5.5,4.8h-5.3V14z
			 M121.2,21.2c1.9,0,3-1,3-2.7c0-1.6-1.2-2.7-3-2.7h-2.7v5.3H121.2z M125.1,26c0-1.6-1.1-2.9-3.5-2.9h-3.2v5.8h3.2
			C124.1,28.8,125.1,27.5,125.1,26z"/>
		<path d="M144.9,22.4c0,4.8-3.5,8.7-8.3,8.7s-8.3-3.8-8.3-8.7c0-4.8,3.5-8.7,8.3-8.7S144.9,17.5,144.9,22.4z M142.7,22.4
			c0-3.6-2.5-6.8-6.1-6.8s-6.1,3.2-6.1,6.8c0,3.6,2.5,6.8,6.1,6.8S142.7,25.9,142.7,22.4z"/>
		<path d="M149.3,14l9,13.4V14h2v16.8h-2.1l-9-13.4v13.4h-2V14H149.3z"/>
		<path d="M181.6,17.6c0,0-1.6-2-4.6-2c-3.6,0-6.1,3.2-6.1,6.8c0,3.6,2.5,6.8,6.1,6.8c3,0,4.8-2.2,4.8-2.2l1.4,1.4
			c0,0-2.3,2.8-6.2,2.8c-4.8,0-8.3-3.8-8.3-8.7c0-4.8,3.5-8.7,8.3-8.7c3.9,0,6,2.6,6,2.6L181.6,17.6z"/>
		<path d="M185,14h4.4c3.3,0,5.6,2,5.6,5c0,4-3.6,4.7-4.1,4.8l4.7,7h-2.4l-4.5-6.9h-1.6v6.9h-2V14z M193,18.9c0-1.8-1.2-3-3.5-3
			h-2.5V22h2.5C191.8,22,193,20.8,193,18.9z"/>
		<path d="M199.7,21.2h7.1v1.9h-7.1v5.7h7.8v1.9h-9.8V14h9.7v1.9h-7.7V21.2z"/>
		<path d="M212.2,21.2h7.1v1.9h-7.1v5.7h7.8v1.9h-9.8V14h9.7v1.9h-7.7V21.2z"/>
		<path d="M224.6,21.9l6.8-7.9h2.6l-7.1,8.2l7.9,8.6h-2.7l-7.4-8v8h-2V14h2V21.9z"/>
	</g>
	<g>
		<path d="M125.9,45.9h5v1.4h-5v4.1h5.5v1.4h-7V40.8h6.9v1.4h-5.4V45.9z"/>
		<path d="M134.7,40.8l6.4,9.5v-9.5h1.4v11.9h-1.5l-6.4-9.5v9.5h-1.4V40.8H134.7z"/>
		<path d="M146.3,45.9h5v1.4h-5v4.1h5.5v1.4h-7V40.8h6.9v1.4h-5.4V45.9z"/>
		<path d="M153.7,40.8h3.1c2.4,0,4,1.4,4,3.5c0,2.8-2.6,3.3-2.9,3.4l3.3,5h-1.7l-3.2-4.9h-1.1v4.9h-1.4V40.8z M159.4,44.3
			c0-1.3-0.9-2.2-2.5-2.2h-1.8v4.3h1.8C158.5,46.5,159.4,45.6,159.4,44.3z"/>
		<path d="M168.2,46.1h4.4v5.2c0,0-1.6,1.6-4.7,1.6c-3.4,0-5.9-2.7-5.9-6.2c0-3.4,2.5-6.2,5.9-6.2c3.1,0,4.4,1.7,4.4,1.7l-1,1
			c0,0-1.1-1.3-3.3-1.3c-2.6,0-4.4,2.3-4.4,4.8c0,2.5,1.8,4.8,4.4,4.8c2.2,0,3.3-0.9,3.3-0.9v-3.1h-3V46.1z"/>
		<path d="M177.3,48l-4-7.2h1.6l3.2,5.8l3.1-5.8h1.5l-4,7.2v4.7h-1.4V48z"/>
	</g>
	<line class="st70" x1="73.5" y1="35.6" x2="235" y2="35.6"/>
</g>
</svg>
