<?xml version="1.0" encoding="utf-8"?>
<!-- Generator: Adobe Illustrator 22.0.1, SVG Export Plug-In . SVG Version: 6.00 Build 0)  -->
<svg version="1.1" id="Layer_1" xmlns="http://www.w3.org/2000/svg" xmlns:xlink="http://www.w3.org/1999/xlink" x="0px" y="0px"
	 viewBox="0 0 294 196.1" style="enable-background:new 0 0 294 196.1;" xml:space="preserve">
<style type="text/css">
	.st0{fill:#DC3D3B;}
	.st1{fill:#4A7351;}
	.st2{fill:#FEFEFE;}
</style>
<g>
	<path class="st0" d="M145.5,56.6c1.6-1.9,3.7-1.9,5.9-2.1c4.1-0.4,8.1-1,12.2-0.8c14.8,0.7,26,7.5,33.9,19.9c2.7,4.3,3.3,9,2.7,14
		c-1.4,12.6-5,24.6-9.4,36.4c-2,5.4-5.7,9.9-9.6,14.1c-1,1.1-2,2.2-3,3.3c-2.2,2.4-4.9,3.6-8.1,3.3c-3.7-0.4-7.3-0.8-10.9-1.7
		c-1.8-0.4-3.4-1.2-4.9-2.1c-1.6-0.9-3.3-1.4-5.1-1.4c-0.6,0-1.2-0.1-1.8-0.2c-1.6-0.5-3.1-0.2-4.4,0.8c-5.1,3.8-10.8,3.9-16.7,3
		c-1-0.2-1.9-0.5-2.7-1.2c-2.4-2.1-4.7-4.4-6.2-7.4c-2.7-5.4-6.1-10.5-8.9-15.9c-4.7-9.1-9-18.4-11.5-28.3c-3-12,0.2-22.4,9.6-30.2
		c7-5.9,15.5-9.2,24.8-9.5c3.1-0.1,6.1,0.7,8.9,2.2c1.4,1.2,2.9,2.2,3.8,3.9C144.6,57.6,144.6,57.6,145.5,56.6z"/>
	<path class="st1" d="M147.5,152.1c47.4,0,94.9,0,142.3,0c1.2,0,1.5,0.3,1.5,1.5c-0.1,11.1,0,22.2,0,33.2c0,1-0.3,1.2-1.3,1.2
		c-95,0-190.1,0-285.1,0c-1,0-1.3-0.3-1.3-1.3c0-11.1,0-22.2,0-33.4c0-1.1,0.3-1.4,1.4-1.4C52.5,152.1,100,152.1,147.5,152.1z
		 M260.8,178.7c-0.2,0.2-0.3,0-0.4-0.1c-2-2-4.4-3.3-7-4.2c-1.8-0.6-1.9-1.1-0.8-2.6c1.8-2.5,3.7-5,5.9-7.3c0.4-0.4,0.9-0.9,0.6-1.5
		c-0.3-0.6-1-0.6-1.6-0.5c-1.3,0.2-2.3,1-3.1,2c-1.3,1.6-2.6,3.2-3.9,4.7c-0.3,0.3-0.6,0.9-1.2,0.6c-0.4-0.2-0.2-0.8-0.2-1.2
		c0.3-2.2,0.8-4.3,1.3-6.4c0.3-1.5,0.9-3,0.8-4.6c0-1.1-0.5-1.5-1.6-1.4c-0.9,0.1-1.1,0.7-1.3,1.4c-0.6,2.6-1.3,5.2-1.9,7.8
		c-1.1,4.6-1.6,9.4-1.7,14.1c0,1.5,0.7,2.2,1.8,2.2c1.2,0,2.1-0.9,2.1-2.3c0-0.9,0-1.8-0.1-2.8c-0.1-0.7,0.2-0.9,0.8-0.7
		c1.2,0.3,2.3,0.7,3.3,1.4c1.6,1,3.1,2.1,4.7,3.1c0.8,0.5,1.7,1.2,2.8,0.7C261.2,180.8,260.7,179.6,260.8,178.7
		c1.1,1.9,2.9,2.7,5.1,2.5c3-0.3,5.7-1.6,8.1-3.4c0.7-0.5,2-1.1,1.4-2.2c-0.6-1.1-1.7-0.4-2.6-0.1c-1.7,0.5-3.3,1.3-4.9,1.8
		c-1.2,0.4-2.5,0.5-3.8,0.1c-0.3-0.1-0.6-0.2-0.7-0.6c-0.1-0.4,0.3-0.5,0.6-0.7c0.7-0.3,1.5-0.6,2.2-0.9c1.7-0.6,3.5-1.1,5.1-2
		c1.5-0.9,1.9-2.2,1.3-3.7c-0.6-1.6-1.9-2.6-3.5-2.8c-3.1-0.4-5.6,0.7-7.3,3.3C260.1,172.8,259.8,175.7,260.8,178.7z M204.3,171
		c-1.3-2.4-2.5-4.5-3.6-6.7c-0.4-0.7-0.7-1.5-0.7-2.4c0-0.5-0.1-0.9-0.6-1.1c-0.5-0.2-1-0.1-1.4,0.4c-0.5,0.5-0.7,1.2-0.9,1.8
		c-0.4,1.3-0.3,2.7-0.6,4c-0.8,3.8-1.3,7.6-2.6,11.3c-0.5,1.4,0.2,2.6,1.1,2.9c0.9,0.3,2-0.6,2.4-2.1c0.5-1.6,0.4-3.2,0.3-4.9
		c-0.1-1.3,0.1-2.7,0.2-4.1c0-0.4,0.2-0.9,0.7-1c0.6-0.1,0.9,0.3,1.1,0.7c0.4,0.7,0.7,1.4,1,2c0.6,1.5,1.3,3,1.9,4.5
		c0.3,0.8,0.8,1,1.7,0.9c0.9-0.1,1.3-0.6,1.7-1.3c1.4-2.6,2.7-5.2,4.1-7.8c0.2-0.4,0.4-1.1,0.9-1c0.5,0.1,0.4,0.8,0.5,1.2
		c0.1,1.6,0.2,3.2,0.3,4.8c0.1,2,0,4,0.3,6c0.1,0.9,0.5,1.6,1.3,1.9c0.9,0.3,1.6-0.1,2.3-0.7c0.9-1,1.1-2.3,0.3-3.5
		c-0.5-0.8-0.7-1.7-0.8-2.6c-0.2-2.7-0.5-5.5-0.6-8.2c-0.1-1.8-0.5-3.6-0.4-5.4c0.1-0.8,0.1-1.5-0.8-1.8c-0.8-0.3-1.8,0.3-2.2,1.2
		C209.3,163.8,206.6,167.1,204.3,171z M11.9,174.2c0-1,0-2,0-3c0-0.8-0.1-1.8,0.9-2c0.9-0.1,1.2,0.9,1.5,1.6
		c0.7,1.7,1.4,3.4,2.1,5.1c0.3,0.7,0.4,1.5,1.5,1.5c1.1,0,1.8-0.5,2.2-1.5c0.4-0.9,0.9-1.7,1.3-2.6c1-1.9,2-3.7,3-5.6
		c0.1-0.3,0.3-0.7,0.7-0.6c0.4,0.1,0.4,0.5,0.4,0.8c0.1,1.1,0.2,2.1,0.3,3.2c0.1,2.6,0.2,5.2,0.3,7.8c0.1,1.9,1.6,2.8,3.1,1.8
		c1.2-0.8,1.6-2.4,0.9-3.7c-0.7-1.2-0.9-2.4-0.9-3.7c-0.1-1.4-0.3-2.9-0.3-4.3c-0.1-2.9-0.7-5.7-0.6-8.6c0-0.8,0-1.5-0.9-1.7
		c-0.9-0.2-1.7,0.1-2.1,1c-0.3,0.6-0.5,1.2-0.8,1.7c-1.8,2.9-3.7,5.7-5.5,8.6c-0.5,0.8-0.7,0.6-1.1-0.1c-1-1.8-2-3.6-2.9-5.4
		c-0.4-0.8-0.8-1.7-0.9-2.6c0-0.6,0-1.2-0.7-1.3c-0.7-0.1-1.2,0.3-1.6,0.9c-0.5,1-0.7,2.1-0.9,3.2c-0.6,4.1-1.1,8.1-2.5,12
		c-0.3,0.9-0.4,1.9-0.4,2.8c0,0.7,0.4,1.2,1,1.5c0.7,0.3,1.2-0.1,1.6-0.4c0.6-0.5,0.8-1.2,1-1.9C12,177.3,11.9,175.7,11.9,174.2z
		 M59.5,171c-1.3-2.5-2.6-4.7-3.7-6.9c-0.3-0.6-0.5-1.3-0.6-2c-0.1-0.5,0-1.2-0.7-1.3c-0.7-0.1-1.2,0.3-1.5,0.9
		c-0.6,1-0.8,2.2-0.9,3.3c-0.6,4.1-1,8.1-2.5,12c-0.3,0.8-0.4,1.6-0.4,2.5c0,0.8,0.4,1.5,1.2,1.7c0.8,0.2,1.4-0.3,1.8-0.9
		c0.6-0.8,0.8-1.7,0.8-2.7c0.2-2.1-0.2-4.2,0.1-6.3c0.1-0.8-0.2-1.9,0.7-2.1c1-0.2,1.3,1,1.7,1.7c0.8,1.8,1.5,3.6,2.2,5.4
		c0.5,1.3,2.3,1.4,3.1,0.2c0.3-0.4,0.5-0.9,0.8-1.4c1.3-2.4,2.5-4.9,3.8-7.3c0.2-0.3,0.3-0.9,0.8-0.7c0.4,0.1,0.3,0.6,0.4,0.9
		c0.2,1.3,0.2,2.6,0.2,3.9c0.1,2.5,0.2,5,0.4,7.4c0.2,1.7,1.8,2.2,3.1,1.1c1.1-0.8,1.4-2.4,0.7-3.7c-0.7-1.2-0.9-2.5-0.9-3.8
		c0-0.6-0.1-1.3-0.1-1.9c-0.3-3.6-0.5-7.2-0.8-10.9c0-0.7,0.1-1.4-0.8-1.6c-0.9-0.2-1.7,0.1-2.1,1C64.6,163.7,61.8,167,59.5,171z
		 M111,169.3c0-7.3-5.1-10.6-11.6-7.6c-5.2,2.4-8,7.6-7,13.8c0.6,3.7,3.4,5.9,7.2,5.9C105.5,181.4,111,175.6,111,169.3z M31.1,173.1
		c0,0.2,0,0.5,0,0.7c0.1,5.4,4.4,8.7,9.6,7.3c5.9-1.6,9.8-7.3,9.1-13.4c-0.6-5.6-4.9-8.4-10.3-6.6C33.7,163.1,30.8,168.7,31.1,173.1
		z M127.4,185.8c0.6,0,1.3,0,1.9-0.1c4.4-0.4,6.7-2.3,7.2-6.7c0.4-4.4,0.5-8.8,0.7-13.1c0-0.6-0.2-1-0.8-1.2
		c-0.7-0.2-1.4-0.1-1.7,0.5c-0.3,0.8-0.9,0.9-1.6,1c-2.7,0.3-5.1,1.1-7.3,2.8c-1.5,1.1-2.5,2.6-3,4.4c-0.7,2.7,0.5,4.6,3.2,5
		c2.3,0.3,4.5-0.1,6.5-1.1c0.7-0.4,0.8-0.1,0.9,0.5c0.3,1.9-0.8,3.6-2.9,4.2c-1.9,0.5-3.9,0.6-5.8,0.4c-1.4-0.1-2.1,0.3-2.2,1.2
		c-0.1,0.9,0.5,1.7,1.6,2.1C125.2,185.8,126.2,185.7,127.4,185.8z M148.3,170.8c-0.3,0-0.5,0-0.6,0c-3.2-1.1-7.9,1.7-9.2,5.3
		c-0.7,2.1,0,3.6,2,4.4c2.5,0.9,4.6,0.1,6.5-1.5c0.5-0.4,0.9-0.9,1.5-1.4c0,0.8,0,1.5,0,2.1c0,0.6,0.3,1.2,1,1.3
		c0.7,0.1,1.4,0,1.8-0.7c0.3-0.5,0.5-1.1,0.6-1.7c0.5-2.4,0.3-4.9-0.1-7.3c-0.6-3.8-2.6-5.4-6.5-5.4c-0.5,0-1,0-1.4,0.1
		c-2.1,0.4-4,1.1-4.9,3.2c-0.2,0.5-0.4,1,0.1,1.4c0.5,0.4,0.9,0.1,1.3-0.1c0.9-0.5,1.9-1.1,2.9-1.4
		C145.5,168.3,146.9,168.8,148.3,170.8z M227.1,170.8c-0.2,0-0.4,0-0.6,0c-3.1-1-7.7,1.7-9,5.3c-0.8,2.2,0,3.7,2.1,4.4
		c2,0.7,3.9,0.3,5.6-0.9c0.8-0.6,1.6-1.3,2.4-2c0,0.8,0,1.4,0,2c0,0.6,0.2,1.1,0.9,1.3c0.6,0.2,1.3,0.2,1.8-0.4
		c0.5-0.5,0.6-1.2,0.8-1.9c0.5-2.8,0.3-5.6-0.4-8.3c-0.5-2.3-1.9-3.8-4.2-4.2c-1.8-0.3-3.6-0.2-5.3,0.4c-1.3,0.5-2.4,1.2-3,2.6
		c-0.2,0.5-0.5,1.1,0,1.5c0.5,0.5,1,0.1,1.4-0.2c1.1-0.6,2.2-1.3,3.5-1.6C224.7,168.4,226.3,169.1,227.1,170.8z M278.9,169.1
		c-0.3,0.7-0.6,1.2-0.8,1.7c-1,1.9-1.6,4-1.8,6.1c-0.2,2.4,0.7,3.7,2.9,4c1.7,0.2,3.4,0.1,5.1-0.4c1-0.3,1.7-0.9,1.9-2
		c0.4-1.5-0.2-2.1-1.7-1.9c-1.1,0.1-1.9,0.7-2.9,1c-1.2,0.4-1.4,0.2-1.5-1c-0.1-2.3,0.5-4.4,1.2-6.5c0.6-1.8,0.6-1.8,2.5-1.7
		c0.4,0,0.9,0,1.3,0c0.7,0,1.3-0.2,1.3-1.1c0-0.9-0.1-1.6-1.1-1.8c-0.5-0.1-1-0.1-1.4,0c-0.7,0.1-1-0.1-0.9-0.9c0.1-1.7,0.4-3.4,1-5
		c0.2-0.6,0.3-1.3-0.3-1.7c-1.1-0.7-2.6-0.1-2.8,1.2c-0.2,1.1-0.2,2.3-0.4,3.4c-0.4,3.6-0.4,3.6-4.1,4.1c-0.9,0.1-1.6,0.3-1.5,1.4
		c0,0.9,0.7,1.5,1.8,1.5C277.2,169.5,277.9,169.3,278.9,169.1z M158.2,168.9c0.1-0.8,0.2-1.5,0.4-2.1c0.1-0.7,0.4-1.4-0.5-1.7
		c-0.9-0.3-1.7,0-2,0.9c-1.4,3.9-2.4,7.8-2.6,12c0,0.7,0.1,1.4,0.5,1.9c0.3,0.4,0.8,0.7,1.3,0.6c0.5-0.1,0.7-0.5,0.8-0.9
		c0.1-0.3,0.2-0.7,0.2-1c0.3-1.6,0.3-3.2,0.9-4.7c0.7-1.6,1.8-3,3.5-3.5c1.6-0.5,2.1-0.1,2.1,1.6c0,2.7-0.1,5.4-0.1,8.1
		c0,1.2,0.5,1.8,1.5,1.9c1.1,0.1,2-0.6,2.2-1.6c0-0.2,0-0.4,0-0.6c-0.1-2.8-0.3-5.7-0.4-8.5c-0.1-1-0.1-2-0.4-3
		c-0.6-1.9-1.8-2.4-3.5-1.6C160.8,167.4,159.7,168.1,158.2,168.9z M173.5,176.7c0,3.1,1.5,4.3,3.9,4.1c2.2-0.3,4.3-1,6.3-1.9
		c1.1-0.5,2.1-1.1,3.1-1.8c0.5-0.4,1-0.8,0.8-1.5c-0.2-0.7-0.8-0.7-1.3-0.8c-1-0.3-2,0-2.9,0.6c-0.9,0.5-1.8,1.1-2.8,1.6
		c-0.7,0.4-1.6,0.6-2.4,0.6c-1.5-0.1-1.9-0.8-1.4-2.2c1.1-2.5,2.7-4.5,4.9-6c0.3-0.2,0.6-0.3,0.8-0.4c0.6-0.3,1-0.1,1,0.7
		c0,0.3-0.1,0.6-0.1,1c-0.2,0.9,0.3,1.2,1.1,1.1c0.8-0.1,1.3-0.6,1.6-1.3c0.4-0.9,0.5-1.9,0.4-2.9c-0.2-1.6-1.2-2.4-2.8-2.3
		c-1.1,0.1-2.2,0.3-3.1,0.8C176.2,168.4,174.3,172.6,173.5,176.7z M115.8,169.8c0-0.7,0-1.2-0.1-1.6c-0.2-1.3-1.1-2-2.2-1.9
		c-1.3,0.1-1.3,1.1-1.3,2.1c-0.2,3.7-0.1,7.4-0.4,11.1c-0.1,0.9,0.4,1.3,1.3,1.4c1.5,0.2,2.4-0.4,2.4-2c0-3.8,1.5-6.5,5.1-8
		c1.1-0.4,2.1-1.1,3-1.7c1-0.6,1.3-1.7,0.8-2.7c-0.5-0.9-1.3-1.1-2.5-0.6c-0.3,0.2-0.6,0.4-0.9,0.6
		C119.2,167.6,117.6,168.7,115.8,169.8z M236.6,169.8c-0.2-0.8,0-1.6-0.3-2.2c-0.4-0.9-1.1-1.3-2.1-1.3c-1,0-1.1,0.9-1.3,1.6
		c-0.1,0.5-0.1,1.1-0.1,1.7c-0.1,3.3-0.2,6.5-0.4,9.8c0,0.9,0.4,1.4,1.3,1.5c1.5,0.2,2.3-0.5,2.4-2c0-0.4,0-0.9,0.1-1.3
		c0.1-2.6,1.2-4.7,3.6-5.9c1.5-0.8,3-1.6,4.5-2.5c1-0.6,1.2-1.6,0.7-2.6c-0.5-0.9-1.3-1.1-2.4-0.6c-0.5,0.2-0.9,0.5-1.3,0.8
		C239.8,167.8,238.3,168.8,236.6,169.8z M78.8,181.3c1.7-0.1,3.4-0.3,4.8-1.3c2.3-1.8,2.1-4.4-0.4-5.8c-0.6-0.3-1.2-0.5-1.8-0.7
		c-0.9-0.4-1.8-0.6-2.6-1.1c-1.2-0.8-1.2-2.1,0.1-2.9c1.3-0.8,2.9-0.7,4,0.5c0.6,0.6,1.2,0.7,1.8,0.3c0.6-0.4,0.6-1.1,0.3-1.7
		c-0.3-0.8-1-1.3-1.7-1.5c-1.4-0.5-2.9-0.5-4.4-0.1c-2.3,0.6-3.7,2.2-3.8,4.2c-0.1,1.8,1,3,3.5,3.9c0.8,0.3,1.6,0.6,2.3,1
		c0.6,0.3,1.2,0.8,1,1.6c-0.1,0.8-0.8,1.1-1.5,1.2c-1.4,0.3-2.8,0.2-3.9-1c-0.4-0.5-0.9-0.5-1.4-0.3c-0.5,0.2-0.6,0.7-0.6,1.2
		c0.1,1.1,0.6,2,1.7,2.4C77,181.2,77.9,181.3,78.8,181.3z M167.6,178.3c0,0.4,0,0.8,0.1,1.3c0.3,1.3,0.8,1.7,2.1,1.6
		c1.1-0.1,1.9-0.7,1.9-1.9c0-3.9,0.1-7.7,0.5-11.6c0.1-0.5,0.1-1-0.6-1.2c-0.5-0.1-1-0.1-1.4,0.4c-0.6,0.7-0.9,1.5-1.2,2.3
		C168.1,172.1,167.9,175.2,167.6,178.3z M76.4,160.3c0.1-0.9-0.5-1.9-1.2-2.2c-0.7-0.2-2.4,0.3-2.9,0.9c-0.7,0.9,0.4,1,0.6,1.5
		c0.2,0.5,0.4,1,0.2,1.5c-0.2,0.4-0.4,0.9-0.6,1.3c-0.1,0.3-0.5,0.6-0.1,0.9c0.3,0.2,0.6,0.1,0.9,0
		C74.8,163.7,76.4,161.7,76.4,160.3z M173.4,161.9c0.1-0.5-0.1-1.3-0.3-2c-0.2-0.6-0.4-1.1-1.2-1.2c-0.7-0.1-1.2,0.3-1.5,0.8
		c-0.8,1.3-0.9,2.7-0.3,4.1c0.3,0.8,1.1,1,1.9,0.9C173.3,164.2,173.4,163.2,173.4,161.9z"/>
	<path class="st0" d="M18.4,124.1c0,3.3-0.1,6.9-1,10.5c-0.8,3.1-2.5,5.7-4.4,8.1c-0.8,1-2,1.5-3.3,1c-3.1-1.2-5.9-2.6-6.7-6.2
		c-0.4-1.9-0.1-3.8,0.5-5.7c0.6-1.8,1.4-3.5,2.4-5.1c1.6-2.5,2.4-5.3,3-8.1c1.4-6.9,2.5-13.9,4.8-20.5c2-5.9,2.1-11.8,2.3-17.8
		c0-1,0-1.9,0.1-2.9c0-1,0.3-1.9,0.8-2.7c1.2-1.9,2.5-3.7,4.3-5.1c1.7-1.3,3.7-1.5,5.7-1c1.7,0.4,2.5,1.6,2.3,3.4
		c-0.3,2.6,0.3,5.1,0.8,7.6c0.4,2,1.4,3.8,2.7,5.3c5.3,6.3,9.7,13.2,14.2,20.1c0.8,1.2,0.8,1.1,1.7,0.2
		c10.3-10.7,18.5-23.1,26.6-35.4c0.7-1.1,1.2-2.2,1.3-3.6c0.2-1.8,1.1-3.1,2.6-3.9c1.9-1.1,3.9-1.6,6.1-1.5c2.9,0.2,5,2.8,4.4,5.7
		c-0.7,3-0.3,6,0.1,8.9c1.6,12.6,2.9,25.2,3.3,37.8c0.1,4,0.3,8.1,0.5,12.1c0.1,1.7,1.1,2.7,2.3,3.6c1.5,1.2,2.6,2.6,2.9,4.5
		c0.1,0.6,0.1,1.1-0.1,1.6c-0.7,1.6-1.5,3.3-2.3,4.9c-1.7,3.7-5.3,4.3-9.2,4c-0.4,0-0.7-0.3-1-0.6c-4.3-3.9-6.1-8.9-6-14.6
		c0.1-5.9,0.3-11.8,0.5-17.7c0.2-4.4-0.5-8.7-0.9-13c-0.1-1.7-0.2-3.3-0.6-5c-0.2-0.9-0.5-1.8-1-2.5c-0.8-1.1-1.6-1.3-2.7-0.3
		c-1.5,1.4-2.6,3.1-3.7,4.8c-6.4,9.8-12.4,19.9-18.5,29.9c-0.6,1-1.3,2-2,3c-0.5,0.7-1.1,1.5-2,1.7c-2,0.5-4,0.8-6,0.9
		c-0.9,0-1.4-0.6-1.8-1.3c-1-1.9-1.6-3.9-2.4-5.9c-1.7-4.6-3.2-9.2-4.6-13.8c-1.4-4.5-3.6-8.6-6.9-11.9c-0.8-0.8-1.7-1.4-2.8-1.8
		c-1.9-0.6-3.2,0-3.9,1.9c-0.6,1.8-0.8,3.7-0.9,5.5c-0.1,5.3-0.7,10.6-1,15.9C18.3,120.7,18.4,122.2,18.4,124.1z"/>
	<path class="st0" d="M211.1,123.6c0,4.2-0.1,8.3-1.2,12.3c-0.8,2.9-2.5,5.3-4.2,7.6c-1,1.3-2.3,1.5-3.8,1c-1.9-0.7-3.7-1.8-5.1-3.3
		c-1.7-2-1.7-4.4-1.2-6.8c0.6-2.9,2.1-5.5,3.6-8.1c1-1.6,1.5-3.3,1.8-5.2c1.6-7.7,2.8-15.4,5.3-22.8c2-6,2-12,2-18.1
		c0-4.7,2.6-7.5,5.9-10c1.6-1.2,3.5-1.1,5.3-0.5c1.5,0.5,2.1,1.9,2,3.7c-0.3,4.3,0.3,8.6,3.1,12c5.3,6.7,10,13.7,14.7,20.9
		c0.6,0.9,0.8,0.7,1.4,0.1c8.7-9.1,15.9-19.3,22.9-29.7c1.1-1.6,2.2-3.3,3.3-4.9c0.9-1.4,1.8-2.9,2-4.7c0.3-2.8,2.5-4,4.9-4.8
		c1.3-0.4,2.5-0.7,3.9-0.5c3,0.5,4.8,2.7,4.2,5.6c-0.7,3.4-0.2,6.7,0.2,10c1.3,11.1,2.7,22.3,3,33.5c0.2,5.2,0.5,10.3,0.6,15.4
		c0.1,1.7,1.2,2.7,2.4,3.7c1.3,1,2.3,2.2,2.7,3.9c0.2,1,0.2,1.9-0.3,2.9c-0.7,1.3-1.3,2.7-1.9,4.1c-1.7,3.8-5.4,4.5-9.1,4.1
		c-0.5,0-0.8-0.3-1.1-0.6c-4.2-3.8-6-8.7-6-14.2c-0.1-5.5,0.3-10.9,0.5-16.4c0.1-3.7-0.1-7.3-0.5-11c-0.3-2.7-0.6-5.5-0.9-8.2
		c-0.1-1.1-0.4-2.1-1.1-3c-0.8-1.1-1.7-1.2-2.7-0.3c-1.2,1.1-2.1,2.5-3,3.8c-6.2,9.3-11.9,18.9-17.7,28.5c-1.2,1.9-2.3,3.9-3.6,5.6
		c-0.7,0.9-1.6,1.5-2.8,1.7c-1.3,0.2-2.5,0.4-3.8,0.5c-1.9,0.2-2.5-0.1-3.3-1.9c-0.9-2.1-1.7-4.3-2.5-6.5c-1.5-4.2-2.9-8.4-4.2-12.6
		c-1.5-4.7-3.7-9-7.4-12.4c-0.2-0.2-0.4-0.4-0.7-0.5c-3-2.1-5.4-1.1-6,2.6c-0.5,2.9-0.5,5.9-0.6,8.8
		C211.7,113.9,210.8,118.8,211.1,123.6z"/>
	<path class="st1" d="M145.5,56.6c-0.9,1-0.9,1-1.5-0.2c-0.9-1.6-2.4-2.7-3.8-3.9c0-7.8,0.1-15.6,0.2-23.4c0-0.5,0.1-1,0.1-1.6
		c0.1-1.5,0.8-2.1,2.2-1.4c3.9,1.8,5.5,3.8,4.9,8.3c-0.4,2.5-1.6,4.8-1.7,7.3c0,0.2,0,0.5-0.1,0.7c0,0.7,0.1,1,0.9,0.6
		c3-1.5,5.9-2.9,8.9-4.3c0.6-0.3,0.7-0.6,0.7-1.2c0.1-2.7,0.2-5.3,0.2-8c0-0.7,0.2-1.2,0.9-1.5c0.8-0.3,1.1-1,1-1.8
		c0-1.6,0-3.3,0-5.2c1.5,0.9,2,0.1,2.6-0.7c1.2-2,2.5-3.9,3.7-5.9c0.3-0.6,0.6-0.9,1.4-0.7c3.1,0.9,5-1,6.8-3c0.6-0.7,1-0.7,1.8-0.3
		c1.8,0.9,3,0.6,4.3-0.9c0.6-0.7,1.1-1.4,1.7-2.2c0.5-0.7,1.1-1.2,1.9-1.7c1.8-1.1,3.3-0.9,4.6,0.8c1.9,2.4,4.2,3.8,7.4,3
		c1-0.3,2.1-0.5,3.1-0.8c0.8-0.3,1.5-0.3,2.2,0.3c2.4,1.8,5.4,1.8,8.2,2.3c0.8,0.1,1.3,0.3,1.6,1.1c0.4,1,1.3,1.6,2.3,2
		c1.6,0.7,3.2,1.1,4.9,1.7c3.5,1.2,5.2,4.2,3.5,7.6c-0.4,0.8-0.7,1.1-1.5,0.3c-1.1-1.1-2.4-1.7-4-0.7c-0.6,0.4-1.3,0.3-2,0.2
		c-1.8-0.1-3,0.7-3.8,2.4c-0.7,1.5-1.2,3.1-1.8,4.7c-2.3,7-7.2,11.7-13.5,15.2c-1.2,0.6-2.1,1.4-2.7,2.6c-0.1,0.2-0.2,0.6-0.5,0.6
		c-1.3-0.1-2.5-0.3-3.8-0.5c-0.3-0.1-0.2-0.4-0.2-0.6c0-0.6,0-1.1,0-1.8c-0.7,1.1-1.3,2-2,3c-0.6,0.9-1.4,1.3-2.4,1.1
		c-0.4-0.1-0.9-0.1-1.3-0.2c-4.3-1.2-8.6-2.4-12.7-4.2c-1.6-0.7-3.3-1.1-4.8-2c-0.7-0.5-1.6-0.4-2.5-0.2c-3.9,1-7.5,2.5-11,4.3
		c-1.6,0.8-2.8,2.7-3.5,4.5C145.8,53.6,145.6,55.1,145.5,56.6z"/>
	<path class="st2" d="M204.3,171c2.3-3.9,5-7.1,6.8-11c0.4-0.9,1.4-1.5,2.2-1.2c0.9,0.3,0.9,1,0.8,1.8c-0.2,1.8,0.3,3.6,0.4,5.4
		c0.2,2.7,0.4,5.5,0.6,8.2c0.1,0.9,0.3,1.8,0.8,2.6c0.7,1.3,0.6,2.6-0.3,3.5c-0.6,0.7-1.4,1-2.3,0.7c-0.8-0.3-1.2-1-1.3-1.9
		c-0.2-2-0.2-4-0.3-6c-0.1-1.6-0.1-3.2-0.3-4.8c0-0.4,0.1-1.1-0.5-1.2c-0.5-0.1-0.7,0.6-0.9,1c-1.4,2.6-2.7,5.2-4.1,7.8
		c-0.4,0.7-0.8,1.2-1.7,1.3c-0.9,0.1-1.4-0.1-1.7-0.9c-0.6-1.5-1.2-3-1.9-4.5c-0.3-0.7-0.6-1.4-1-2c-0.2-0.4-0.6-0.8-1.1-0.7
		c-0.5,0.1-0.6,0.6-0.7,1c-0.1,1.3-0.2,2.7-0.2,4.1c0.1,1.6,0.1,3.3-0.3,4.9c-0.4,1.4-1.5,2.3-2.4,2.1c-1-0.3-1.6-1.6-1.1-2.9
		c1.3-3.7,1.8-7.5,2.6-11.3c0.3-1.3,0.2-2.7,0.6-4c0.2-0.7,0.4-1.3,0.9-1.8c0.4-0.4,0.9-0.6,1.4-0.4c0.5,0.2,0.6,0.6,0.6,1.1
		c-0.1,0.9,0.3,1.7,0.7,2.4C201.8,166.4,203,168.5,204.3,171z"/>
	<path class="st2" d="M11.9,174.2c0,1.6,0.1,3.1-0.3,4.7c-0.2,0.7-0.4,1.4-1,1.9c-0.5,0.3-0.9,0.8-1.6,0.4c-0.6-0.3-1-0.8-1-1.5
		c-0.1-1,0-1.9,0.4-2.8c1.5-3.9,1.9-8,2.5-12c0.2-1.1,0.4-2.2,0.9-3.2c0.3-0.6,0.8-1,1.6-0.9c0.8,0.1,0.7,0.7,0.7,1.3
		c0.1,0.9,0.4,1.8,0.9,2.6c1,1.8,2,3.6,2.9,5.4c0.3,0.6,0.6,0.9,1.1,0.1c1.8-2.9,3.7-5.7,5.5-8.6c0.3-0.5,0.5-1.2,0.8-1.7
		c0.4-0.9,1.2-1.2,2.1-1c0.9,0.2,0.9,0.9,0.9,1.7c-0.1,2.9,0.5,5.7,0.6,8.6c0.1,1.4,0.2,2.9,0.3,4.3c0.1,1.3,0.3,2.5,0.9,3.7
		c0.7,1.3,0.3,2.9-0.9,3.7c-1.5,1-3,0.2-3.1-1.8c-0.1-2.6-0.2-5.2-0.3-7.8c0-1.1-0.1-2.1-0.3-3.2c0-0.3,0-0.7-0.4-0.8
		c-0.4-0.1-0.5,0.3-0.7,0.6c-1,1.9-2,3.7-3,5.6c-0.4,0.8-0.9,1.7-1.3,2.6c-0.4,1-1.2,1.5-2.2,1.5c-1,0-1.2-0.8-1.5-1.5
		c-0.7-1.7-1.4-3.4-2.1-5.1c-0.3-0.7-0.6-1.7-1.5-1.6c-1,0.1-0.8,1.2-0.9,2C11.9,172.2,11.9,173.2,11.9,174.2z"/>
	<path class="st2" d="M59.5,171c2.3-4,5.1-7.3,6.9-11.2c0.4-0.9,1.2-1.2,2.1-1c0.9,0.2,0.8,0.9,0.8,1.6c0.2,3.6,0.5,7.2,0.8,10.9
		c0,0.6,0.1,1.3,0.1,1.9c0.1,1.3,0.2,2.6,0.9,3.8c0.7,1.3,0.4,2.9-0.7,3.7c-1.3,1-3,0.5-3.1-1.1c-0.3-2.5-0.3-4.9-0.4-7.4
		c-0.1-1.3,0-2.6-0.2-3.9c-0.1-0.4,0-0.8-0.4-0.9c-0.5-0.1-0.6,0.4-0.8,0.7c-1.3,2.4-2.6,4.9-3.8,7.3c-0.2,0.5-0.5,0.9-0.8,1.4
		c-0.8,1.1-2.5,1-3.1-0.2c-0.8-1.8-1.5-3.6-2.2-5.4c-0.3-0.8-0.6-1.9-1.7-1.7c-1,0.2-0.6,1.3-0.7,2.1c-0.3,2.1,0,4.2-0.1,6.3
		c-0.1,1-0.3,1.9-0.8,2.7c-0.4,0.6-1,1.1-1.8,0.9c-0.8-0.2-1.2-0.9-1.2-1.7c-0.1-0.9,0.1-1.7,0.4-2.5c1.5-3.9,1.9-8,2.5-12
		c0.2-1.2,0.4-2.3,0.9-3.3c0.3-0.6,0.8-1,1.5-0.9c0.8,0.1,0.6,0.8,0.7,1.3c0.1,0.7,0.3,1.4,0.6,2C57,166.3,58.2,168.5,59.5,171z"/>
	<path class="st2" d="M111,169.3c0,6.3-5.5,12.1-11.5,12c-3.7,0-6.6-2.2-7.2-5.9c-1-6.2,1.8-11.4,7-13.8
		C105.9,158.7,111,162,111,169.3z M95.6,172.4c-0.3,4.1,2.9,6,5.9,5.3c4.4-1.1,7.1-6.2,5.6-10.5c-0.8-2.4-2.8-3.5-5.3-3
		C98.1,165,95.6,168.3,95.6,172.4z"/>
	<path class="st2" d="M31.1,173.1c-0.3-4.4,2.6-10,8.4-12c5.4-1.8,9.7,1,10.3,6.6c0.7,6-3.2,11.8-9.1,13.4c-5.2,1.4-9.5-1.9-9.6-7.3
		C31.1,173.6,31.1,173.4,31.1,173.1z M34.4,172.4c-0.2,4.4,3.2,6,5.9,5.3c4.5-1.1,7.2-6.2,5.6-10.6c-0.8-2.3-2.8-3.4-5.1-2.9
		C37.1,164.9,34.4,168.3,34.4,172.4z"/>
	<path class="st2" d="M260.7,178.7c0,0.9,0.5,2.1-0.7,2.7c-1,0.5-1.9-0.2-2.8-0.7c-1.6-1-3.1-2.1-4.7-3.1c-1-0.7-2.1-1.1-3.3-1.4
		c-0.6-0.2-0.9,0-0.8,0.7c0.1,0.9,0.1,1.8,0.1,2.8c0,1.4-0.9,2.3-2.1,2.3c-1.1,0-1.8-0.8-1.8-2.2c0.1-4.8,0.7-9.5,1.7-14.1
		c0.6-2.6,1.2-5.2,1.9-7.8c0.2-0.7,0.4-1.3,1.3-1.4c1.1-0.1,1.6,0.3,1.6,1.4c0,1.6-0.5,3.1-0.8,4.6c-0.5,2.1-1,4.3-1.3,6.4
		c-0.1,0.4-0.3,1,0.2,1.2c0.5,0.3,0.9-0.3,1.2-0.6c1.3-1.6,2.6-3.2,3.9-4.7c0.8-1,1.8-1.8,3.1-2c0.6-0.1,1.3-0.2,1.6,0.5
		c0.3,0.6-0.2,1.1-0.6,1.5c-2.2,2.2-4.1,4.7-5.9,7.3c-1.1,1.5-0.9,1.9,0.8,2.6c2.6,0.9,5,2.3,7,4.2
		C260.5,178.7,260.6,178.9,260.7,178.7L260.7,178.7z"/>
	<path class="st2" d="M127.4,185.8c-1.1-0.1-2.2,0-3.2-0.3c-1.1-0.4-1.8-1.2-1.6-2.1c0.2-1,0.9-1.4,2.2-1.2c2,0.2,3.9,0.2,5.8-0.4
		c2.2-0.6,3.3-2.3,2.9-4.2c-0.1-0.6-0.2-0.8-0.9-0.5c-2,1.1-4.2,1.4-6.5,1.1c-2.8-0.4-3.9-2.3-3.2-5c0.5-1.8,1.5-3.2,3-4.4
		c2.1-1.7,4.6-2.5,7.3-2.8c0.7-0.1,1.3-0.2,1.6-1c0.3-0.7,1-0.7,1.7-0.5c0.6,0.2,0.8,0.6,0.8,1.2c-0.2,4.4-0.3,8.8-0.7,13.1
		c-0.4,4.4-2.7,6.3-7.2,6.7C128.6,185.7,127.9,185.7,127.4,185.8z M127.8,175.8c2.3-0.4,4.2-1.5,5.4-3.7c0.5-0.9,0.4-1.9-0.4-2.7
		c-0.7-0.8-1.6-0.7-2.4-0.3c-2,0.9-3.6,2.4-4.4,4.5C125.5,174.9,126.2,175.8,127.8,175.8z"/>
	<path class="st2" d="M148.3,170.8c-1.5-2.1-2.8-2.5-4.9-1.8c-1,0.4-1.9,0.9-2.9,1.4c-0.4,0.2-0.9,0.5-1.3,0.1
		c-0.5-0.4-0.3-1-0.1-1.4c0.9-2.1,2.8-2.8,4.9-3.2c0.5-0.1,1-0.1,1.4-0.1c3.9,0,5.9,1.6,6.5,5.4c0.4,2.4,0.6,4.8,0.1,7.3
		c-0.1,0.6-0.3,1.2-0.6,1.7c-0.4,0.7-1.1,0.8-1.8,0.7c-0.7-0.1-1-0.6-1-1.3c0-0.6,0-1.3,0-2.1c-0.6,0.5-1,1-1.5,1.4
		c-1.9,1.6-4,2.4-6.5,1.5c-2.1-0.8-2.8-2.3-2-4.4c1.3-3.6,5.9-6.4,9.2-5.3C147.9,170.8,148,170.8,148.3,170.8z M142.7,177.8
		c2.1-0.3,3.9-1.2,5.1-2.9c0.4-0.5,0.6-1.2,0.1-1.8c-0.4-0.6-1.1-0.7-1.7-0.5c-1.9,0.6-3.5,1.6-4.7,3.3c-0.3,0.4-0.5,0.8-0.2,1.3
		C141.6,177.7,142.1,177.8,142.7,177.8z"/>
	<path class="st2" d="M227.1,170.8c-0.9-1.7-2.5-2.4-4.2-2c-1.2,0.3-2.4,1-3.5,1.6c-0.4,0.2-0.9,0.6-1.4,0.2c-0.5-0.5-0.2-1,0-1.5
		c0.6-1.3,1.7-2.1,3-2.6c1.7-0.7,3.5-0.7,5.3-0.4c2.3,0.4,3.7,2,4.2,4.2c0.6,2.7,0.8,5.5,0.4,8.3c-0.1,0.7-0.3,1.3-0.8,1.9
		c-0.5,0.6-1.1,0.6-1.8,0.4c-0.6-0.2-0.9-0.7-0.9-1.3c0-0.6,0-1.3,0-2c-0.9,0.7-1.6,1.4-2.4,2c-1.7,1.2-3.5,1.6-5.6,0.9
		c-2.2-0.8-2.9-2.3-2.1-4.4c1.3-3.6,6-6.3,9-5.3C226.7,170.8,226.9,170.8,227.1,170.8z M221.6,177.8c2.1-0.3,3.9-1.2,5.1-2.9
		c0.4-0.5,0.6-1.2,0.1-1.8c-0.4-0.6-1-0.7-1.7-0.5c-1.9,0.5-3.5,1.6-4.7,3.3c-0.3,0.4-0.5,0.9-0.2,1.3
		C220.5,177.7,221,177.8,221.6,177.8z"/>
	<path class="st2" d="M260.8,178.7c-0.9-3-0.7-5.9,1-8.6c1.7-2.7,4.2-3.7,7.3-3.3c1.6,0.2,2.9,1.2,3.5,2.8c0.6,1.5,0.2,2.8-1.3,3.7
		c-1.6,1-3.4,1.4-5.1,2c-0.8,0.3-1.5,0.6-2.2,0.9c-0.3,0.1-0.6,0.3-0.6,0.7c0.1,0.4,0.4,0.5,0.7,0.6c1.3,0.4,2.5,0.4,3.8-0.1
		c1.7-0.6,3.3-1.3,4.9-1.8c0.9-0.3,2.1-0.9,2.6,0.1c0.6,1.1-0.7,1.7-1.4,2.2c-2.4,1.7-5,3.1-8.1,3.4
		C263.6,181.4,261.9,180.6,260.8,178.7C260.7,178.7,260.8,178.7,260.8,178.7z M265,173c1.4-0.2,2.9-0.8,4.1-1.7
		c0.5-0.4,1.1-0.8,0.8-1.4c-0.3-0.8-1.1-1.1-1.9-0.9c-1.6,0.4-2.9,1.3-3.9,2.6c-0.2,0.3-0.4,0.7-0.2,1.1
		C264.1,173.1,264.5,172.9,265,173z"/>
	<path class="st2" d="M278.9,169.1c-1,0.2-1.7,0.4-2.5,0.4c-1.1,0.1-1.8-0.6-1.8-1.5c0-1.1,0.7-1.3,1.5-1.4c3.7-0.5,3.7-0.5,4.1-4.1
		c0.1-1.1,0.2-2.3,0.4-3.4c0.2-1.3,1.8-1.9,2.8-1.2c0.7,0.5,0.6,1.1,0.3,1.7c-0.6,1.6-0.9,3.3-1,5c0,0.8,0.2,1,0.9,0.9
		c0.5-0.1,1-0.1,1.4,0c1,0.2,1.1,0.9,1.1,1.8c0,0.9-0.6,1.1-1.3,1.1c-0.4,0-0.9,0-1.3,0c-1.8,0-1.8-0.1-2.5,1.7
		c-0.7,2.1-1.3,4.3-1.2,6.5c0,1.2,0.3,1.4,1.5,1c1-0.3,1.9-0.9,2.9-1c1.5-0.2,2.1,0.5,1.7,1.9c-0.3,1-0.9,1.7-1.9,2
		c-1.7,0.5-3.4,0.7-5.1,0.4c-2.2-0.3-3.1-1.7-2.9-4c0.2-2.2,0.8-4.2,1.8-6.1C278.3,170.3,278.6,169.8,278.9,169.1z"/>
	<path class="st2" d="M158.2,168.9c1.4-0.8,2.6-1.5,3.9-2.1c1.8-0.8,2.9-0.3,3.5,1.6c0.3,1,0.4,2,0.4,3c0.2,2.8,0.3,5.7,0.4,8.5
		c0,0.2,0,0.4,0,0.6c-0.2,1.1-1,1.7-2.2,1.6c-1-0.1-1.5-0.7-1.5-1.9c0-2.7,0.1-5.4,0.1-8.1c0-1.7-0.5-2.1-2.1-1.6
		c-1.8,0.6-2.8,1.9-3.5,3.5c-0.7,1.5-0.7,3.1-0.9,4.7c-0.1,0.4-0.1,0.7-0.2,1c-0.1,0.5-0.3,0.8-0.8,0.9c-0.6,0.1-1-0.2-1.3-0.6
		c-0.4-0.6-0.6-1.3-0.5-1.9c0.2-4.1,1.3-8.1,2.6-12c0.3-0.9,1.1-1.2,2-0.9c0.9,0.3,0.7,1,0.5,1.7
		C158.5,167.5,158.4,168.1,158.2,168.9z"/>
	<path class="st2" d="M173.5,176.7c0.8-4.2,2.7-8.3,7.1-10.8c0.9-0.5,2-0.7,3.1-0.8c1.6-0.1,2.6,0.7,2.8,2.3c0.1,1-0.1,2-0.4,2.9
		c-0.3,0.7-0.8,1.2-1.6,1.3c-0.8,0.1-1.3-0.1-1.1-1.1c0.1-0.3,0.1-0.6,0.1-1c0.1-0.8-0.3-0.9-1-0.7c-0.3,0.1-0.6,0.3-0.8,0.4
		c-2.2,1.5-3.9,3.5-4.9,6c-0.6,1.3-0.1,2,1.4,2.2c0.9,0.1,1.7-0.2,2.4-0.6c1-0.5,1.9-1.1,2.8-1.6c0.9-0.5,1.8-0.8,2.9-0.6
		c0.5,0.1,1.2,0.2,1.3,0.8c0.2,0.7-0.3,1.1-0.8,1.5c-1,0.7-2,1.3-3.1,1.8c-2,0.9-4.1,1.6-6.3,1.9
		C174.9,181.1,173.5,179.8,173.5,176.7z"/>
	<path class="st2" d="M115.8,169.8c1.8-1.1,3.4-2.2,5-3.3c0.3-0.2,0.6-0.4,0.9-0.6c1.1-0.5,2-0.3,2.5,0.6c0.5,1,0.3,2.1-0.8,2.7
		c-1,0.6-2,1.2-3,1.7c-3.6,1.5-5.1,4.2-5.1,8c0,1.6-0.8,2.2-2.4,2c-0.9-0.1-1.3-0.6-1.3-1.4c0.3-3.7,0.2-7.4,0.4-11.1
		c0.1-0.9,0.1-1.9,1.3-2.1c1.1-0.1,2,0.7,2.2,1.9C115.8,168.7,115.8,169.2,115.8,169.8z"/>
	<path class="st2" d="M236.6,169.8c1.6-1.1,3.2-2.1,4.7-3.1c0.4-0.3,0.9-0.6,1.3-0.8c1.1-0.5,1.9-0.2,2.4,0.6c0.5,1,0.3,2-0.7,2.6
		c-1.5,0.9-3,1.7-4.5,2.5c-2.4,1.2-3.5,3.3-3.6,5.9c0,0.4,0,0.9-0.1,1.3c-0.1,1.5-0.9,2.2-2.4,2c-0.9-0.1-1.3-0.6-1.3-1.5
		c0.1-3.3,0.2-6.5,0.4-9.8c0-0.6,0-1.1,0.1-1.7c0.1-0.7,0.2-1.6,1.3-1.6c1,0,1.7,0.4,2.1,1.3C236.6,168.3,236.5,169,236.6,169.8z"/>
	<path class="st2" d="M78.8,181.3c-0.9,0-1.7-0.1-2.6-0.4c-1.1-0.4-1.6-1.2-1.7-2.4c0-0.5,0-1,0.6-1.2c0.5-0.2,1-0.1,1.4,0.3
		c1.1,1.2,2.5,1.2,3.9,1c0.7-0.1,1.4-0.4,1.5-1.2c0.1-0.8-0.4-1.3-1-1.6c-0.7-0.4-1.5-0.7-2.3-1c-2.5-0.9-3.5-2.1-3.5-3.9
		c0.1-2,1.6-3.7,3.8-4.2c1.5-0.4,2.9-0.4,4.4,0.1c0.8,0.3,1.4,0.8,1.7,1.5c0.3,0.6,0.3,1.3-0.3,1.7c-0.6,0.5-1.2,0.3-1.8-0.3
		c-1.1-1.2-2.7-1.4-4-0.5c-1.3,0.8-1.3,2.1-0.1,2.9c0.8,0.5,1.7,0.8,2.6,1.1c0.6,0.2,1.2,0.4,1.8,0.7c2.6,1.4,2.7,4,0.4,5.8
		C82.1,181,80.5,181.3,78.8,181.3z"/>
	<path class="st2" d="M167.6,178.3c0.3-3.1,0.5-6.2,1.4-9.1c0.3-0.8,0.6-1.7,1.2-2.3c0.4-0.4,0.9-0.5,1.4-0.4
		c0.6,0.2,0.6,0.7,0.6,1.2c-0.4,3.9-0.5,7.7-0.5,11.6c0,1.2-0.8,1.8-1.9,1.9c-1.3,0.1-1.8-0.3-2.1-1.6
		C167.6,179.1,167.7,178.7,167.6,178.3z"/>
	<path class="st2" d="M76.4,160.3c-0.1,1.4-1.7,3.4-3,3.9c-0.3,0.1-0.7,0.2-0.9,0c-0.3-0.3,0-0.6,0.1-0.9c0.2-0.4,0.4-0.9,0.6-1.3
		c0.2-0.5,0-1-0.2-1.5c-0.2-0.5-1.3-0.6-0.6-1.5c0.5-0.6,2.2-1.2,2.9-0.9C76,158.4,76.5,159.4,76.4,160.3z"/>
	<path class="st2" d="M173.4,161.9c0,1.3-0.1,2.3-1.3,2.6c-0.8,0.2-1.5-0.1-1.9-0.9c-0.6-1.4-0.5-2.8,0.3-4.1
		c0.3-0.5,0.8-0.8,1.5-0.8c0.7,0.1,1,0.6,1.2,1.2C173.3,160.7,173.5,161.4,173.4,161.9z"/>
	<path class="st1" d="M95.6,172.4c0-4.1,2.5-7.4,6.2-8.2c2.5-0.5,4.4,0.6,5.3,3c1.5,4.3-1.2,9.4-5.6,10.5
		C98.5,178.4,95.3,176.5,95.6,172.4z"/>
	<path class="st1" d="M34.4,172.4c0-4,2.7-7.5,6.4-8.2c2.4-0.4,4.3,0.7,5.1,2.9c1.6,4.3-1.1,9.5-5.6,10.6
		C37.6,178.3,34.2,176.8,34.4,172.4z"/>
	<path class="st1" d="M127.8,175.8c-1.7,0-2.4-0.9-1.8-2.2c0.9-2,2.4-3.6,4.4-4.5c0.8-0.4,1.7-0.5,2.4,0.3c0.7,0.8,0.9,1.7,0.4,2.7
		C132.1,174.3,130.1,175.4,127.8,175.8z"/>
	<path class="st1" d="M142.7,177.8c-0.6,0-1.1-0.1-1.4-0.6c-0.3-0.5-0.1-0.9,0.2-1.3c1.2-1.7,2.8-2.7,4.7-3.3
		c0.6-0.2,1.3-0.1,1.7,0.5c0.4,0.6,0.3,1.2-0.1,1.8C146.5,176.6,144.7,177.4,142.7,177.8z"/>
	<path class="st1" d="M221.6,177.8c-0.6,0-1.1-0.1-1.4-0.6c-0.3-0.5-0.1-0.9,0.2-1.3c1.2-1.6,2.8-2.7,4.7-3.3
		c0.7-0.2,1.3-0.1,1.7,0.5c0.4,0.6,0.3,1.2-0.1,1.8C225.5,176.6,223.7,177.4,221.6,177.8z"/>
	<path class="st1" d="M265,173c-0.5,0-0.9,0.1-1.1-0.3c-0.2-0.4,0-0.8,0.2-1.1c1-1.3,2.3-2.2,3.9-2.6c0.8-0.2,1.6,0.1,1.9,0.9
		c0.3,0.7-0.3,1.1-0.8,1.4C267.9,172.2,266.5,172.8,265,173z"/>
</g>
</svg>
